<svg width="47" height="47" viewBox="0 0 47 47" fill="none" xmlns="http://www.w3.org/2000/svg">
<circle cx="23.5" cy="23.5" r="23.5" fill="#2613C8"/>
<path d="M29.5078 16.5528C29.2304 16.3985 28.9253 16.3003 28.6099 16.2639C28.2946 16.2276 27.9751 16.2538 27.6699 16.341C27.3646 16.4282 27.0796 16.5747 26.831 16.7721C26.5824 16.9696 26.3752 17.2141 26.2212 17.4917L21.7346 25.5658L19.1669 22.9981C18.944 22.7672 18.6773 22.5831 18.3825 22.4565C18.0876 22.3298 17.7705 22.2632 17.4496 22.2604C17.1287 22.2576 16.8105 22.3187 16.5135 22.4402C16.2165 22.5618 15.9467 22.7412 15.7198 22.9681C15.4929 23.195 15.3134 23.4648 15.1919 23.7618C15.0704 24.0588 15.0093 24.3771 15.0121 24.698C15.0148 25.0188 15.0815 25.3359 15.2082 25.6308C15.3348 25.9256 15.5189 26.1923 15.7497 26.4152L20.5831 31.2486C21.0398 31.7065 21.6561 31.9579 22.2917 31.9579L22.6264 31.9337C22.9968 31.8819 23.3501 31.7448 23.6585 31.5332C23.967 31.3217 24.2221 31.0414 24.4038 30.7145L30.4455 19.8395C30.5997 19.5621 30.6978 19.2571 30.7342 18.9418C30.7706 18.6265 30.7445 18.3071 30.6574 18.0019C30.5703 17.6967 30.424 17.4117 30.2267 17.163C30.0295 16.9144 29.7852 16.707 29.5078 16.5528Z" fill="white"/>
</svg>
